G75*
%MOIN*%
%OFA0B0*%
%FSLAX25Y25*%
%IPPOS*%
%LPD*%
%AMOC8*
5,1,8,0,0,1.08239X$1,22.5*
%
%ADD10C,0.00000*%
%ADD11C,0.03937*%
%ADD12R,0.01100X0.06800*%
%ADD13R,0.06800X0.01100*%
%ADD14R,0.08600X0.02200*%
%ADD15R,0.03937X0.04331*%
%ADD16R,0.03937X0.07087*%
%ADD17R,0.03543X0.02559*%
%ADD18R,0.04331X0.03937*%
%ADD19R,0.05512X0.06299*%
%ADD20R,0.03150X0.03150*%
%ADD21R,0.05000X0.12598*%
%ADD22C,0.06000*%
%ADD23C,0.08250*%
%ADD24R,0.12402X0.07008*%
%ADD25R,0.09449X0.09449*%
%ADD26R,0.01200X0.03200*%
%ADD27R,0.09400X0.06500*%
%ADD28R,0.09843X0.08661*%
%ADD29R,0.21654X0.08465*%
%ADD30R,0.05118X0.05906*%
%ADD31R,0.07087X0.04724*%
%ADD32R,0.05000X0.02500*%
%ADD33C,0.23622*%
%ADD34R,0.01969X0.03937*%
%ADD35C,0.05400*%
%ADD36C,0.13500*%
%ADD37R,0.03500X0.03100*%
%ADD38R,0.02200X0.05200*%
%ADD39R,0.03500X0.06400*%
%ADD40R,0.12500X0.06400*%
%ADD41R,0.02200X0.07800*%
%ADD42C,0.03543*%
%ADD43C,0.02953*%
%ADD44C,0.05906*%
D10*
X0062193Y0054300D02*
X0424398Y0054300D01*
X0424779Y0054305D01*
X0425159Y0054318D01*
X0425539Y0054341D01*
X0425918Y0054374D01*
X0426296Y0054415D01*
X0426673Y0054465D01*
X0427049Y0054525D01*
X0427424Y0054593D01*
X0427796Y0054671D01*
X0428167Y0054758D01*
X0428535Y0054853D01*
X0428901Y0054958D01*
X0429264Y0055071D01*
X0429625Y0055193D01*
X0429982Y0055323D01*
X0430336Y0055463D01*
X0430687Y0055610D01*
X0431034Y0055767D01*
X0431377Y0055931D01*
X0431716Y0056104D01*
X0432051Y0056285D01*
X0432382Y0056474D01*
X0432707Y0056671D01*
X0433028Y0056875D01*
X0433344Y0057088D01*
X0433654Y0057308D01*
X0433960Y0057535D01*
X0434259Y0057770D01*
X0434553Y0058012D01*
X0434841Y0058260D01*
X0435123Y0058516D01*
X0435398Y0058779D01*
X0435667Y0059048D01*
X0435930Y0059323D01*
X0436186Y0059605D01*
X0436434Y0059893D01*
X0436676Y0060187D01*
X0436911Y0060486D01*
X0437138Y0060792D01*
X0437358Y0061102D01*
X0437571Y0061418D01*
X0437775Y0061739D01*
X0437972Y0062064D01*
X0438161Y0062395D01*
X0438342Y0062730D01*
X0438515Y0063069D01*
X0438679Y0063412D01*
X0438836Y0063759D01*
X0438983Y0064110D01*
X0439123Y0064464D01*
X0439253Y0064821D01*
X0439375Y0065182D01*
X0439488Y0065545D01*
X0439593Y0065911D01*
X0439688Y0066279D01*
X0439775Y0066650D01*
X0439853Y0067022D01*
X0439921Y0067397D01*
X0439981Y0067773D01*
X0440031Y0068150D01*
X0440072Y0068528D01*
X0440105Y0068907D01*
X0440128Y0069287D01*
X0440141Y0069667D01*
X0440146Y0070048D01*
X0440146Y0353513D01*
X0440141Y0353894D01*
X0440128Y0354274D01*
X0440105Y0354654D01*
X0440072Y0355033D01*
X0440031Y0355411D01*
X0439981Y0355788D01*
X0439921Y0356164D01*
X0439853Y0356539D01*
X0439775Y0356911D01*
X0439688Y0357282D01*
X0439593Y0357650D01*
X0439488Y0358016D01*
X0439375Y0358379D01*
X0439253Y0358740D01*
X0439123Y0359097D01*
X0438983Y0359451D01*
X0438836Y0359802D01*
X0438679Y0360149D01*
X0438515Y0360492D01*
X0438342Y0360831D01*
X0438161Y0361166D01*
X0437972Y0361497D01*
X0437775Y0361822D01*
X0437571Y0362143D01*
X0437358Y0362459D01*
X0437138Y0362769D01*
X0436911Y0363075D01*
X0436676Y0363374D01*
X0436434Y0363668D01*
X0436186Y0363956D01*
X0435930Y0364238D01*
X0435667Y0364513D01*
X0435398Y0364782D01*
X0435123Y0365045D01*
X0434841Y0365301D01*
X0434553Y0365549D01*
X0434259Y0365791D01*
X0433960Y0366026D01*
X0433654Y0366253D01*
X0433344Y0366473D01*
X0433028Y0366686D01*
X0432707Y0366890D01*
X0432382Y0367087D01*
X0432051Y0367276D01*
X0431716Y0367457D01*
X0431377Y0367630D01*
X0431034Y0367794D01*
X0430687Y0367951D01*
X0430336Y0368098D01*
X0429982Y0368238D01*
X0429625Y0368368D01*
X0429264Y0368490D01*
X0428901Y0368603D01*
X0428535Y0368708D01*
X0428167Y0368803D01*
X0427796Y0368890D01*
X0427424Y0368968D01*
X0427049Y0369036D01*
X0426673Y0369096D01*
X0426296Y0369146D01*
X0425918Y0369187D01*
X0425539Y0369220D01*
X0425159Y0369243D01*
X0424779Y0369256D01*
X0424398Y0369261D01*
X0062193Y0369261D01*
X0061812Y0369256D01*
X0061432Y0369243D01*
X0061052Y0369220D01*
X0060673Y0369187D01*
X0060295Y0369146D01*
X0059918Y0369096D01*
X0059542Y0369036D01*
X0059167Y0368968D01*
X0058795Y0368890D01*
X0058424Y0368803D01*
X0058056Y0368708D01*
X0057690Y0368603D01*
X0057327Y0368490D01*
X0056966Y0368368D01*
X0056609Y0368238D01*
X0056255Y0368098D01*
X0055904Y0367951D01*
X0055557Y0367794D01*
X0055214Y0367630D01*
X0054875Y0367457D01*
X0054540Y0367276D01*
X0054209Y0367087D01*
X0053884Y0366890D01*
X0053563Y0366686D01*
X0053247Y0366473D01*
X0052937Y0366253D01*
X0052631Y0366026D01*
X0052332Y0365791D01*
X0052038Y0365549D01*
X0051750Y0365301D01*
X0051468Y0365045D01*
X0051193Y0364782D01*
X0050924Y0364513D01*
X0050661Y0364238D01*
X0050405Y0363956D01*
X0050157Y0363668D01*
X0049915Y0363374D01*
X0049680Y0363075D01*
X0049453Y0362769D01*
X0049233Y0362459D01*
X0049020Y0362143D01*
X0048816Y0361822D01*
X0048619Y0361497D01*
X0048430Y0361166D01*
X0048249Y0360831D01*
X0048076Y0360492D01*
X0047912Y0360149D01*
X0047755Y0359802D01*
X0047608Y0359451D01*
X0047468Y0359097D01*
X0047338Y0358740D01*
X0047216Y0358379D01*
X0047103Y0358016D01*
X0046998Y0357650D01*
X0046903Y0357282D01*
X0046816Y0356911D01*
X0046738Y0356539D01*
X0046670Y0356164D01*
X0046610Y0355788D01*
X0046560Y0355411D01*
X0046519Y0355033D01*
X0046486Y0354654D01*
X0046463Y0354274D01*
X0046450Y0353894D01*
X0046445Y0353513D01*
X0046445Y0070048D01*
X0046450Y0069667D01*
X0046463Y0069287D01*
X0046486Y0068907D01*
X0046519Y0068528D01*
X0046560Y0068150D01*
X0046610Y0067773D01*
X0046670Y0067397D01*
X0046738Y0067022D01*
X0046816Y0066650D01*
X0046903Y0066279D01*
X0046998Y0065911D01*
X0047103Y0065545D01*
X0047216Y0065182D01*
X0047338Y0064821D01*
X0047468Y0064464D01*
X0047608Y0064110D01*
X0047755Y0063759D01*
X0047912Y0063412D01*
X0048076Y0063069D01*
X0048249Y0062730D01*
X0048430Y0062395D01*
X0048619Y0062064D01*
X0048816Y0061739D01*
X0049020Y0061418D01*
X0049233Y0061102D01*
X0049453Y0060792D01*
X0049680Y0060486D01*
X0049915Y0060187D01*
X0050157Y0059893D01*
X0050405Y0059605D01*
X0050661Y0059323D01*
X0050924Y0059048D01*
X0051193Y0058779D01*
X0051468Y0058516D01*
X0051750Y0058260D01*
X0052038Y0058012D01*
X0052332Y0057770D01*
X0052631Y0057535D01*
X0052937Y0057308D01*
X0053247Y0057088D01*
X0053563Y0056875D01*
X0053884Y0056671D01*
X0054209Y0056474D01*
X0054540Y0056285D01*
X0054875Y0056104D01*
X0055214Y0055931D01*
X0055557Y0055767D01*
X0055904Y0055610D01*
X0056255Y0055463D01*
X0056609Y0055323D01*
X0056966Y0055193D01*
X0057327Y0055071D01*
X0057690Y0054958D01*
X0058056Y0054853D01*
X0058424Y0054758D01*
X0058795Y0054671D01*
X0059167Y0054593D01*
X0059542Y0054525D01*
X0059918Y0054465D01*
X0060295Y0054415D01*
X0060673Y0054374D01*
X0061052Y0054341D01*
X0061432Y0054318D01*
X0061812Y0054305D01*
X0062193Y0054300D01*
D11*
X0077941Y0085796D03*
X0077941Y0335265D03*
X0408650Y0337765D03*
X0408650Y0085796D03*
D12*
X0242232Y0156780D03*
X0240264Y0156780D03*
X0238295Y0156780D03*
X0236327Y0156780D03*
X0234358Y0156780D03*
X0232390Y0156780D03*
X0230421Y0156780D03*
X0228453Y0156780D03*
X0226484Y0156780D03*
X0224516Y0156780D03*
X0222547Y0156780D03*
X0220579Y0156780D03*
X0218610Y0156780D03*
X0216642Y0156780D03*
X0214673Y0156780D03*
X0212705Y0156780D03*
X0210736Y0156780D03*
X0208768Y0156780D03*
X0206799Y0156780D03*
X0204831Y0156780D03*
X0202862Y0156780D03*
X0200894Y0156780D03*
X0198925Y0156780D03*
X0196957Y0156780D03*
X0194988Y0156780D03*
X0194988Y0216780D03*
X0196957Y0216780D03*
X0198925Y0216780D03*
X0200894Y0216780D03*
X0202862Y0216780D03*
X0204831Y0216780D03*
X0206799Y0216780D03*
X0208768Y0216780D03*
X0210736Y0216780D03*
X0212705Y0216780D03*
X0214673Y0216780D03*
X0216642Y0216780D03*
X0218610Y0216780D03*
X0220579Y0216780D03*
X0222547Y0216780D03*
X0224516Y0216780D03*
X0226484Y0216780D03*
X0228453Y0216780D03*
X0230421Y0216780D03*
X0232390Y0216780D03*
X0234358Y0216780D03*
X0236327Y0216780D03*
X0238295Y0216780D03*
X0240264Y0216780D03*
X0242232Y0216780D03*
D13*
X0248610Y0210402D03*
X0248610Y0208434D03*
X0248610Y0206465D03*
X0248610Y0204497D03*
X0248610Y0202528D03*
X0248610Y0200560D03*
X0248610Y0198591D03*
X0248610Y0196623D03*
X0248610Y0194654D03*
X0248610Y0192686D03*
X0248610Y0190717D03*
X0248610Y0188749D03*
X0248610Y0186780D03*
X0248610Y0184812D03*
X0248610Y0182843D03*
X0248610Y0180875D03*
X0248610Y0178906D03*
X0248610Y0176938D03*
X0248610Y0174969D03*
X0248610Y0173001D03*
X0248610Y0171032D03*
X0248610Y0169064D03*
X0248610Y0167095D03*
X0248610Y0165127D03*
X0248610Y0163158D03*
X0188610Y0163158D03*
X0188610Y0165127D03*
X0188610Y0167095D03*
X0188610Y0169064D03*
X0188610Y0171032D03*
X0188610Y0173001D03*
X0188610Y0174969D03*
X0188610Y0176938D03*
X0188610Y0178906D03*
X0188610Y0180875D03*
X0188610Y0182843D03*
X0188610Y0184812D03*
X0188610Y0186780D03*
X0188610Y0188749D03*
X0188610Y0190717D03*
X0188610Y0192686D03*
X0188610Y0194654D03*
X0188610Y0196623D03*
X0188610Y0198591D03*
X0188610Y0200560D03*
X0188610Y0202528D03*
X0188610Y0204497D03*
X0188610Y0206465D03*
X0188610Y0208434D03*
X0188610Y0210402D03*
D14*
X0188346Y0089300D03*
X0188346Y0084300D03*
X0188346Y0079300D03*
X0188346Y0074300D03*
X0206946Y0074300D03*
X0206946Y0079300D03*
X0206946Y0084300D03*
X0206946Y0089300D03*
D15*
X0209299Y0101800D03*
X0215992Y0101800D03*
X0224299Y0101800D03*
X0230992Y0101800D03*
X0220146Y0120954D03*
X0220146Y0127646D03*
X0210146Y0127646D03*
X0210146Y0120954D03*
X0261799Y0107800D03*
X0268492Y0107800D03*
X0294299Y0108050D03*
X0300992Y0108050D03*
X0352549Y0077050D03*
X0359242Y0077050D03*
X0368799Y0074300D03*
X0375492Y0074300D03*
X0384299Y0074300D03*
X0390992Y0074300D03*
X0390992Y0096800D03*
X0384299Y0096800D03*
X0384299Y0146800D03*
X0375992Y0146800D03*
X0369299Y0146800D03*
X0358992Y0148800D03*
X0352299Y0148800D03*
X0384299Y0169300D03*
X0390992Y0169300D03*
X0390992Y0146800D03*
X0385992Y0199300D03*
X0379299Y0199300D03*
X0379299Y0210550D03*
X0385992Y0210550D03*
X0404299Y0254300D03*
X0410992Y0254300D03*
X0405992Y0271800D03*
X0399299Y0271800D03*
X0369742Y0314300D03*
X0363049Y0314300D03*
X0352242Y0314300D03*
X0345549Y0314300D03*
X0334742Y0314300D03*
X0328049Y0314300D03*
X0317242Y0314300D03*
X0310549Y0314300D03*
X0290992Y0314300D03*
X0284299Y0314300D03*
X0273492Y0314300D03*
X0266799Y0314300D03*
X0255992Y0314300D03*
X0249299Y0314300D03*
X0238492Y0314300D03*
X0231799Y0314300D03*
X0221091Y0314300D03*
X0214398Y0314300D03*
X0214791Y0276849D03*
X0208098Y0276849D03*
X0208049Y0269300D03*
X0214742Y0269300D03*
X0214742Y0261800D03*
X0208049Y0261800D03*
X0208049Y0254300D03*
X0214742Y0254300D03*
X0214742Y0246800D03*
X0208049Y0246800D03*
X0115992Y0219300D03*
X0109299Y0219300D03*
X0391799Y0324300D03*
X0398492Y0324300D03*
D16*
X0220067Y0136800D03*
X0210224Y0136800D03*
D17*
X0233512Y0133552D03*
X0233512Y0140048D03*
X0241780Y0140048D03*
X0241780Y0133552D03*
D18*
X0240992Y0124300D03*
X0234299Y0124300D03*
X0201445Y0103896D03*
X0201445Y0097204D03*
X0193945Y0097154D03*
X0193945Y0103847D03*
X0228994Y0087646D03*
X0228994Y0080954D03*
X0251494Y0080954D03*
X0251494Y0087646D03*
X0276146Y0108454D03*
X0276146Y0115146D03*
X0285146Y0115146D03*
X0285146Y0108454D03*
X0354799Y0137300D03*
X0361492Y0137300D03*
X0358299Y0159300D03*
X0364992Y0159300D03*
X0384299Y0156800D03*
X0390992Y0156800D03*
X0361992Y0209300D03*
X0355299Y0209300D03*
X0362646Y0235954D03*
X0362646Y0242646D03*
X0372646Y0242646D03*
X0372646Y0235954D03*
X0382646Y0235954D03*
X0382646Y0242646D03*
X0392646Y0242646D03*
X0392646Y0235954D03*
X0404299Y0264300D03*
X0410992Y0264300D03*
X0420146Y0262646D03*
X0420146Y0255954D03*
X0372646Y0283454D03*
X0372646Y0290146D03*
X0365146Y0290146D03*
X0365146Y0283454D03*
X0365146Y0275146D03*
X0365146Y0268454D03*
X0348896Y0268454D03*
X0348896Y0275146D03*
X0348896Y0283454D03*
X0348896Y0290146D03*
X0356396Y0290146D03*
X0356396Y0283454D03*
X0338896Y0283454D03*
X0338896Y0290146D03*
X0331396Y0290146D03*
X0331396Y0283454D03*
X0331396Y0275146D03*
X0331396Y0268454D03*
X0320146Y0283454D03*
X0320146Y0290146D03*
X0312646Y0290146D03*
X0312646Y0283454D03*
X0312646Y0275146D03*
X0312646Y0268454D03*
X0291494Y0283454D03*
X0291494Y0290146D03*
X0283994Y0290146D03*
X0283994Y0283454D03*
X0285146Y0275146D03*
X0285146Y0268454D03*
X0275146Y0268454D03*
X0275146Y0275146D03*
X0273994Y0283454D03*
X0273994Y0290146D03*
X0266494Y0290146D03*
X0266494Y0283454D03*
X0265146Y0275146D03*
X0265146Y0268454D03*
X0255146Y0268454D03*
X0255146Y0275146D03*
X0256494Y0283454D03*
X0256494Y0290146D03*
X0248994Y0290146D03*
X0248994Y0283454D03*
X0238994Y0283454D03*
X0238994Y0290146D03*
X0231494Y0290146D03*
X0231494Y0283454D03*
X0221445Y0283503D03*
X0221445Y0290196D03*
X0187646Y0282646D03*
X0180146Y0282646D03*
X0180146Y0275954D03*
X0187646Y0275954D03*
X0172646Y0275954D03*
X0165146Y0275954D03*
X0165146Y0282646D03*
X0172646Y0282646D03*
X0157646Y0282646D03*
X0150146Y0282646D03*
X0150146Y0275954D03*
X0157646Y0275954D03*
X0142646Y0275954D03*
X0135146Y0275954D03*
X0135146Y0282646D03*
X0142646Y0282646D03*
X0122646Y0282646D03*
X0122646Y0275954D03*
X0115146Y0275954D03*
X0107646Y0275954D03*
X0107646Y0282646D03*
X0115146Y0282646D03*
X0100146Y0282646D03*
X0092646Y0282646D03*
X0092646Y0275954D03*
X0100146Y0275954D03*
X0085146Y0275954D03*
X0077695Y0275954D03*
X0077695Y0282646D03*
X0085146Y0282646D03*
X0070195Y0282646D03*
X0070195Y0275954D03*
X0070146Y0252646D03*
X0062695Y0252646D03*
X0062695Y0245954D03*
X0070146Y0245954D03*
X0110146Y0210146D03*
X0110146Y0203454D03*
X0120146Y0203454D03*
X0120146Y0210146D03*
X0126445Y0185146D03*
X0126445Y0178454D03*
X0112646Y0178454D03*
X0112646Y0185146D03*
X0120146Y0245954D03*
X0120146Y0252646D03*
X0127646Y0252646D03*
X0127646Y0245954D03*
X0135146Y0245954D03*
X0142646Y0245954D03*
X0142646Y0252646D03*
X0135146Y0252646D03*
X0192646Y0252646D03*
X0192646Y0245954D03*
X0200146Y0245954D03*
X0200146Y0252646D03*
X0261396Y0212646D03*
X0261396Y0205954D03*
X0270146Y0205954D03*
X0278896Y0205954D03*
X0278896Y0212646D03*
X0270146Y0212646D03*
X0287646Y0212646D03*
X0287646Y0205954D03*
X0296396Y0205954D03*
X0296396Y0212646D03*
X0305146Y0212646D03*
X0305146Y0205954D03*
X0313896Y0205954D03*
X0322646Y0205954D03*
X0322646Y0212646D03*
X0313896Y0212646D03*
X0185146Y0328454D03*
X0185146Y0335146D03*
X0175146Y0335146D03*
X0175146Y0328454D03*
X0165146Y0328454D03*
X0165146Y0335146D03*
X0155146Y0335146D03*
X0155146Y0328454D03*
X0120146Y0328454D03*
X0120146Y0335146D03*
X0110146Y0335146D03*
X0110146Y0328454D03*
X0100146Y0328454D03*
X0100146Y0335146D03*
X0090195Y0335146D03*
X0090195Y0328454D03*
X0088148Y0103050D03*
X0094841Y0103050D03*
X0105648Y0103050D03*
X0112341Y0103050D03*
X0358049Y0089300D03*
X0364742Y0089300D03*
X0384299Y0084300D03*
X0390992Y0084300D03*
D19*
X0099673Y0167312D03*
X0099673Y0185028D03*
X0099673Y0203532D03*
X0099673Y0221249D03*
X0068177Y0221249D03*
X0068177Y0203532D03*
X0068177Y0185028D03*
X0068177Y0167312D03*
D20*
X0070146Y0258847D03*
X0062695Y0258847D03*
X0062695Y0264753D03*
X0070146Y0264753D03*
X0120146Y0264753D03*
X0120146Y0258847D03*
X0127646Y0258847D03*
X0127646Y0264753D03*
X0135146Y0264753D03*
X0142646Y0264753D03*
X0142646Y0258847D03*
X0135146Y0258847D03*
X0192646Y0258847D03*
X0192646Y0264753D03*
X0200146Y0264753D03*
X0200146Y0258847D03*
X0220943Y0261800D03*
X0226848Y0261800D03*
X0226848Y0254300D03*
X0220943Y0254300D03*
X0220943Y0246800D03*
X0226848Y0246800D03*
X0226848Y0269300D03*
X0226898Y0276849D03*
X0220992Y0276849D03*
X0220943Y0269300D03*
X0347146Y0158503D03*
X0347146Y0152597D03*
X0392193Y0199300D03*
X0398098Y0199300D03*
X0398098Y0210550D03*
X0392193Y0210550D03*
X0392646Y0248847D03*
X0392646Y0254753D03*
X0382646Y0254753D03*
X0382646Y0248847D03*
X0372646Y0248847D03*
X0372646Y0254753D03*
X0362646Y0254753D03*
X0362646Y0248847D03*
X0412193Y0271800D03*
X0418098Y0271800D03*
X0347146Y0089253D03*
X0347146Y0083347D03*
X0245146Y0081347D03*
X0245146Y0087253D03*
X0235146Y0087253D03*
X0235146Y0081347D03*
D21*
X0167646Y0081957D03*
X0157646Y0081957D03*
X0147646Y0081957D03*
X0137646Y0081957D03*
X0127646Y0081957D03*
X0127646Y0101643D03*
X0137646Y0101643D03*
X0147646Y0101643D03*
X0157646Y0101643D03*
X0167646Y0101643D03*
D22*
X0112646Y0123800D02*
X0112646Y0129800D01*
X0102646Y0129800D02*
X0102646Y0123800D01*
X0092646Y0123800D02*
X0092646Y0129800D01*
X0082646Y0129800D02*
X0082646Y0123800D01*
X0072646Y0123800D02*
X0072646Y0129800D01*
X0062646Y0129800D02*
X0062646Y0123800D01*
X0086445Y0346300D02*
X0086445Y0352300D01*
X0096445Y0352300D02*
X0096445Y0346300D01*
X0106445Y0346300D02*
X0106445Y0352300D01*
X0116445Y0352300D02*
X0116445Y0346300D01*
X0126445Y0346300D02*
X0126445Y0352300D01*
X0136445Y0352300D02*
X0136445Y0346300D01*
X0151445Y0346300D02*
X0151445Y0352300D01*
X0161445Y0352300D02*
X0161445Y0346300D01*
X0171445Y0346300D02*
X0171445Y0352300D01*
X0181445Y0352300D02*
X0181445Y0346300D01*
X0191445Y0346300D02*
X0191445Y0352300D01*
X0201445Y0352300D02*
X0201445Y0346300D01*
X0221445Y0346300D02*
X0221445Y0352300D01*
X0231445Y0352300D02*
X0231445Y0346300D01*
X0251445Y0346300D02*
X0251445Y0352300D01*
X0261445Y0352300D02*
X0261445Y0346300D01*
X0271445Y0346300D02*
X0271445Y0352300D01*
X0281445Y0352300D02*
X0281445Y0346300D01*
X0291445Y0346300D02*
X0291445Y0352300D01*
X0301445Y0352300D02*
X0301445Y0346300D01*
X0321445Y0346300D02*
X0321445Y0352300D01*
X0331445Y0352300D02*
X0331445Y0346300D01*
X0341445Y0346300D02*
X0341445Y0352300D01*
X0351445Y0352300D02*
X0351445Y0346300D01*
X0361445Y0346300D02*
X0361445Y0352300D01*
X0371445Y0352300D02*
X0371445Y0346300D01*
X0391445Y0346300D02*
X0391445Y0352300D01*
X0401445Y0352300D02*
X0401445Y0346300D01*
D23*
X0408521Y0221780D02*
X0416771Y0221780D01*
X0416771Y0201780D02*
X0408521Y0201780D01*
D24*
X0407646Y0161091D03*
X0407646Y0147509D03*
D25*
X0413807Y0114300D03*
X0396484Y0114300D03*
D26*
X0376546Y0110000D03*
X0374646Y0110000D03*
X0372646Y0110000D03*
X0370646Y0110000D03*
X0368746Y0110000D03*
X0368746Y0098600D03*
X0370646Y0098600D03*
X0372646Y0098600D03*
X0374646Y0098600D03*
X0376546Y0098600D03*
X0376546Y0171100D03*
X0374646Y0171100D03*
X0372646Y0171100D03*
X0370646Y0171100D03*
X0368746Y0171100D03*
X0368746Y0182500D03*
X0370646Y0182500D03*
X0372646Y0182500D03*
X0374646Y0182500D03*
X0376546Y0182500D03*
D27*
X0372646Y0176800D03*
X0372646Y0104300D03*
D28*
X0364398Y0124300D03*
X0345894Y0124300D03*
X0345894Y0196800D03*
X0364398Y0196800D03*
D29*
X0330146Y0184379D03*
X0330146Y0169221D03*
X0330146Y0113129D03*
X0330146Y0097971D03*
D30*
X0348906Y0099300D03*
X0356386Y0099300D03*
X0356386Y0169300D03*
X0348906Y0169300D03*
D31*
X0383925Y0284339D03*
X0383925Y0293001D03*
X0383925Y0301662D03*
X0383925Y0314261D03*
X0406366Y0314261D03*
X0406366Y0301662D03*
X0406366Y0293001D03*
X0406366Y0284339D03*
D32*
X0424394Y0328588D03*
X0424394Y0331831D03*
X0424398Y0095292D03*
X0424398Y0092048D03*
X0062193Y0092048D03*
X0062193Y0095292D03*
X0062193Y0325769D03*
X0062193Y0329012D03*
D33*
X0062193Y0353513D03*
X0062193Y0070048D03*
X0424398Y0070048D03*
X0424398Y0353513D03*
D34*
X0355146Y0259556D03*
X0350146Y0259556D03*
X0345146Y0259556D03*
X0340146Y0259556D03*
X0335146Y0259556D03*
X0330146Y0259556D03*
X0325146Y0259556D03*
X0320146Y0259556D03*
X0320146Y0234044D03*
X0325146Y0234044D03*
X0330146Y0234044D03*
X0335146Y0234044D03*
X0340146Y0234044D03*
X0345146Y0234044D03*
X0350146Y0234044D03*
X0355146Y0234044D03*
X0285146Y0234044D03*
X0280146Y0234044D03*
X0275146Y0234044D03*
X0270146Y0234044D03*
X0265146Y0234044D03*
X0260146Y0234044D03*
X0255146Y0234044D03*
X0250146Y0234044D03*
X0250146Y0259556D03*
X0255146Y0259556D03*
X0260146Y0259556D03*
X0265146Y0259556D03*
X0270146Y0259556D03*
X0275146Y0259556D03*
X0280146Y0259556D03*
X0285146Y0259556D03*
X0185146Y0294044D03*
X0180146Y0294044D03*
X0175146Y0294044D03*
X0170146Y0294044D03*
X0165146Y0294044D03*
X0160146Y0294044D03*
X0155146Y0294044D03*
X0150146Y0294044D03*
X0150146Y0319556D03*
X0155146Y0319556D03*
X0160146Y0319556D03*
X0165146Y0319556D03*
X0170146Y0319556D03*
X0175146Y0319556D03*
X0180146Y0319556D03*
X0185146Y0319556D03*
X0120146Y0319556D03*
X0115146Y0319556D03*
X0110146Y0319556D03*
X0105146Y0319556D03*
X0100146Y0319556D03*
X0095146Y0319556D03*
X0090146Y0319556D03*
X0085146Y0319556D03*
X0085146Y0294044D03*
X0090146Y0294044D03*
X0095146Y0294044D03*
X0100146Y0294044D03*
X0105146Y0294044D03*
X0110146Y0294044D03*
X0115146Y0294044D03*
X0120146Y0294044D03*
D35*
X0280246Y0090400D03*
X0280246Y0082500D03*
X0290046Y0082500D03*
X0290046Y0090400D03*
D36*
X0308846Y0071800D03*
X0261446Y0071800D03*
D37*
X0256596Y0300600D03*
X0256596Y0308000D03*
X0248696Y0304300D03*
X0239096Y0300600D03*
X0239096Y0308000D03*
X0231196Y0304300D03*
X0221645Y0307951D03*
X0213745Y0304251D03*
X0221645Y0300551D03*
X0266196Y0304300D03*
X0274096Y0300600D03*
X0274096Y0308000D03*
X0283696Y0304300D03*
X0291596Y0300600D03*
X0291596Y0308000D03*
X0311196Y0304300D03*
X0319096Y0300600D03*
X0319096Y0308000D03*
X0328696Y0304300D03*
X0336596Y0300600D03*
X0336596Y0308000D03*
X0346196Y0304300D03*
X0354096Y0300600D03*
X0354096Y0308000D03*
X0363696Y0304300D03*
X0371596Y0300600D03*
X0371596Y0308000D03*
D38*
X0371346Y0322500D03*
X0363946Y0322500D03*
X0367646Y0331100D03*
X0353846Y0322500D03*
X0346446Y0322500D03*
X0350146Y0331100D03*
X0336346Y0322500D03*
X0328946Y0322500D03*
X0332646Y0331100D03*
X0318846Y0322500D03*
X0311446Y0322500D03*
X0315146Y0331100D03*
X0291346Y0322500D03*
X0283946Y0322500D03*
X0287646Y0331100D03*
X0273846Y0322500D03*
X0266446Y0322500D03*
X0270146Y0331100D03*
X0256346Y0322500D03*
X0248946Y0322500D03*
X0252646Y0331100D03*
X0238846Y0322500D03*
X0231446Y0322500D03*
X0235146Y0331100D03*
X0221346Y0322500D03*
X0213946Y0322500D03*
X0217646Y0331100D03*
D39*
X0109246Y0094400D03*
X0100146Y0094400D03*
X0091046Y0094400D03*
D40*
X0100146Y0069200D03*
D41*
X0097695Y0244600D03*
X0102695Y0244600D03*
X0107695Y0244600D03*
X0112695Y0244600D03*
X0112695Y0264000D03*
X0107695Y0264000D03*
X0102695Y0264000D03*
X0097695Y0264000D03*
X0092695Y0264000D03*
X0087695Y0264000D03*
X0082695Y0264000D03*
X0077695Y0264000D03*
X0077695Y0244600D03*
X0082695Y0244600D03*
X0087695Y0244600D03*
X0092695Y0244600D03*
X0150195Y0244600D03*
X0155195Y0244600D03*
X0160195Y0244600D03*
X0165195Y0244600D03*
X0170195Y0244600D03*
X0175195Y0244600D03*
X0180195Y0244600D03*
X0185195Y0244600D03*
X0185195Y0264000D03*
X0180195Y0264000D03*
X0175195Y0264000D03*
X0170195Y0264000D03*
X0165195Y0264000D03*
X0160195Y0264000D03*
X0155195Y0264000D03*
X0150195Y0264000D03*
D42*
X0055559Y0251150D03*
X0055559Y0211780D03*
X0055559Y0172410D03*
X0055559Y0133040D03*
X0055559Y0105481D03*
X0079555Y0078670D03*
X0087055Y0062174D03*
X0123305Y0062174D03*
X0163305Y0062174D03*
X0203925Y0062174D03*
X0243295Y0062174D03*
X0282665Y0062174D03*
X0322035Y0062174D03*
X0361406Y0062174D03*
X0400776Y0062174D03*
X0400776Y0093670D03*
X0432272Y0109418D03*
X0432272Y0133040D03*
X0432272Y0172410D03*
X0432272Y0211780D03*
X0432272Y0251150D03*
X0432272Y0290520D03*
X0430274Y0318956D03*
X0410776Y0332391D03*
X0400776Y0361013D03*
X0361406Y0361387D03*
X0322035Y0361387D03*
X0270165Y0361387D03*
X0225165Y0361387D03*
X0173295Y0361387D03*
X0133925Y0361387D03*
X0087055Y0361387D03*
X0055559Y0314143D03*
X0055559Y0290520D03*
D43*
X0090146Y0303050D03*
X0100146Y0303050D03*
X0110146Y0303050D03*
X0120146Y0303050D03*
X0155146Y0303050D03*
X0165146Y0303050D03*
X0175146Y0303050D03*
X0185146Y0303050D03*
X0226445Y0314300D03*
X0244146Y0314300D03*
X0261646Y0314300D03*
X0279146Y0314300D03*
X0296646Y0314300D03*
X0322896Y0314300D03*
X0340396Y0314300D03*
X0357896Y0314300D03*
X0375396Y0314300D03*
X0392646Y0271800D03*
X0413896Y0246550D03*
X0379146Y0204550D03*
X0379146Y0192800D03*
X0385646Y0186800D03*
X0365146Y0166800D03*
X0335146Y0154300D03*
X0329146Y0154300D03*
X0323146Y0154300D03*
X0323146Y0146800D03*
X0329146Y0146800D03*
X0335146Y0146800D03*
X0309146Y0107800D03*
X0322646Y0080800D03*
X0322646Y0074300D03*
X0328646Y0074300D03*
X0334646Y0074300D03*
X0334646Y0080800D03*
X0328646Y0080800D03*
X0365146Y0095800D03*
X0386646Y0114300D03*
X0380646Y0125300D03*
X0261646Y0100300D03*
X0236646Y0101800D03*
X0233646Y0117050D03*
X0226146Y0135550D03*
X0201646Y0119550D03*
X0195146Y0129300D03*
X0170146Y0129300D03*
X0209146Y0108300D03*
X0207646Y0094800D03*
X0180646Y0066800D03*
X0118896Y0101800D03*
X0106396Y0111800D03*
X0100195Y0103050D03*
X0087695Y0098050D03*
X0115646Y0066800D03*
X0120146Y0149300D03*
X0112646Y0172300D03*
X0120646Y0219300D03*
X0113646Y0254800D03*
X0186146Y0254800D03*
X0203146Y0208550D03*
X0212396Y0201300D03*
X0210146Y0194800D03*
X0196146Y0194800D03*
X0210896Y0174550D03*
X0212396Y0166300D03*
X0218646Y0166300D03*
X0226646Y0165300D03*
X0234146Y0165300D03*
X0240646Y0167800D03*
X0226646Y0173800D03*
X0220896Y0176050D03*
X0226896Y0194800D03*
X0239646Y0194800D03*
X0239646Y0202300D03*
X0236646Y0208800D03*
X0196146Y0170800D03*
X0250146Y0253050D03*
X0260146Y0253050D03*
X0270146Y0253050D03*
X0280146Y0253050D03*
X0320146Y0253050D03*
X0330146Y0253050D03*
X0340146Y0253050D03*
X0350146Y0253050D03*
D44*
X0403146Y0135300D03*
X0414396Y0135300D03*
M02*
