G75*
%MOIN*%
%OFA0B0*%
%FSLAX25Y25*%
%IPPOS*%
%LPD*%
%AMOC8*
5,1,8,0,0,1.08239X$1,22.5*
%
%ADD10C,0.00000*%
%ADD11R,0.04331X0.03937*%
%ADD12R,0.03937X0.04331*%
%ADD13R,0.07874X0.04724*%
%ADD14R,0.15000X0.15000*%
%ADD15R,0.17000X0.17000*%
%ADD16C,0.06000*%
%ADD17C,0.08250*%
%ADD18R,0.09449X0.09449*%
%ADD19C,0.23622*%
%ADD20C,0.05400*%
%ADD21C,0.13500*%
%ADD22R,0.05000X0.02500*%
%ADD23R,0.04724X0.05906*%
%ADD24C,0.03543*%
%ADD25C,0.02953*%
%ADD26C,0.05906*%
D10*
X0062193Y0054300D02*
X0424398Y0054300D01*
X0424779Y0054305D01*
X0425159Y0054318D01*
X0425539Y0054341D01*
X0425918Y0054374D01*
X0426296Y0054415D01*
X0426673Y0054465D01*
X0427049Y0054525D01*
X0427424Y0054593D01*
X0427796Y0054671D01*
X0428167Y0054758D01*
X0428535Y0054853D01*
X0428901Y0054958D01*
X0429264Y0055071D01*
X0429625Y0055193D01*
X0429982Y0055323D01*
X0430336Y0055463D01*
X0430687Y0055610D01*
X0431034Y0055767D01*
X0431377Y0055931D01*
X0431716Y0056104D01*
X0432051Y0056285D01*
X0432382Y0056474D01*
X0432707Y0056671D01*
X0433028Y0056875D01*
X0433344Y0057088D01*
X0433654Y0057308D01*
X0433960Y0057535D01*
X0434259Y0057770D01*
X0434553Y0058012D01*
X0434841Y0058260D01*
X0435123Y0058516D01*
X0435398Y0058779D01*
X0435667Y0059048D01*
X0435930Y0059323D01*
X0436186Y0059605D01*
X0436434Y0059893D01*
X0436676Y0060187D01*
X0436911Y0060486D01*
X0437138Y0060792D01*
X0437358Y0061102D01*
X0437571Y0061418D01*
X0437775Y0061739D01*
X0437972Y0062064D01*
X0438161Y0062395D01*
X0438342Y0062730D01*
X0438515Y0063069D01*
X0438679Y0063412D01*
X0438836Y0063759D01*
X0438983Y0064110D01*
X0439123Y0064464D01*
X0439253Y0064821D01*
X0439375Y0065182D01*
X0439488Y0065545D01*
X0439593Y0065911D01*
X0439688Y0066279D01*
X0439775Y0066650D01*
X0439853Y0067022D01*
X0439921Y0067397D01*
X0439981Y0067773D01*
X0440031Y0068150D01*
X0440072Y0068528D01*
X0440105Y0068907D01*
X0440128Y0069287D01*
X0440141Y0069667D01*
X0440146Y0070048D01*
X0440146Y0353513D01*
X0440141Y0353894D01*
X0440128Y0354274D01*
X0440105Y0354654D01*
X0440072Y0355033D01*
X0440031Y0355411D01*
X0439981Y0355788D01*
X0439921Y0356164D01*
X0439853Y0356539D01*
X0439775Y0356911D01*
X0439688Y0357282D01*
X0439593Y0357650D01*
X0439488Y0358016D01*
X0439375Y0358379D01*
X0439253Y0358740D01*
X0439123Y0359097D01*
X0438983Y0359451D01*
X0438836Y0359802D01*
X0438679Y0360149D01*
X0438515Y0360492D01*
X0438342Y0360831D01*
X0438161Y0361166D01*
X0437972Y0361497D01*
X0437775Y0361822D01*
X0437571Y0362143D01*
X0437358Y0362459D01*
X0437138Y0362769D01*
X0436911Y0363075D01*
X0436676Y0363374D01*
X0436434Y0363668D01*
X0436186Y0363956D01*
X0435930Y0364238D01*
X0435667Y0364513D01*
X0435398Y0364782D01*
X0435123Y0365045D01*
X0434841Y0365301D01*
X0434553Y0365549D01*
X0434259Y0365791D01*
X0433960Y0366026D01*
X0433654Y0366253D01*
X0433344Y0366473D01*
X0433028Y0366686D01*
X0432707Y0366890D01*
X0432382Y0367087D01*
X0432051Y0367276D01*
X0431716Y0367457D01*
X0431377Y0367630D01*
X0431034Y0367794D01*
X0430687Y0367951D01*
X0430336Y0368098D01*
X0429982Y0368238D01*
X0429625Y0368368D01*
X0429264Y0368490D01*
X0428901Y0368603D01*
X0428535Y0368708D01*
X0428167Y0368803D01*
X0427796Y0368890D01*
X0427424Y0368968D01*
X0427049Y0369036D01*
X0426673Y0369096D01*
X0426296Y0369146D01*
X0425918Y0369187D01*
X0425539Y0369220D01*
X0425159Y0369243D01*
X0424779Y0369256D01*
X0424398Y0369261D01*
X0062193Y0369261D01*
X0061812Y0369256D01*
X0061432Y0369243D01*
X0061052Y0369220D01*
X0060673Y0369187D01*
X0060295Y0369146D01*
X0059918Y0369096D01*
X0059542Y0369036D01*
X0059167Y0368968D01*
X0058795Y0368890D01*
X0058424Y0368803D01*
X0058056Y0368708D01*
X0057690Y0368603D01*
X0057327Y0368490D01*
X0056966Y0368368D01*
X0056609Y0368238D01*
X0056255Y0368098D01*
X0055904Y0367951D01*
X0055557Y0367794D01*
X0055214Y0367630D01*
X0054875Y0367457D01*
X0054540Y0367276D01*
X0054209Y0367087D01*
X0053884Y0366890D01*
X0053563Y0366686D01*
X0053247Y0366473D01*
X0052937Y0366253D01*
X0052631Y0366026D01*
X0052332Y0365791D01*
X0052038Y0365549D01*
X0051750Y0365301D01*
X0051468Y0365045D01*
X0051193Y0364782D01*
X0050924Y0364513D01*
X0050661Y0364238D01*
X0050405Y0363956D01*
X0050157Y0363668D01*
X0049915Y0363374D01*
X0049680Y0363075D01*
X0049453Y0362769D01*
X0049233Y0362459D01*
X0049020Y0362143D01*
X0048816Y0361822D01*
X0048619Y0361497D01*
X0048430Y0361166D01*
X0048249Y0360831D01*
X0048076Y0360492D01*
X0047912Y0360149D01*
X0047755Y0359802D01*
X0047608Y0359451D01*
X0047468Y0359097D01*
X0047338Y0358740D01*
X0047216Y0358379D01*
X0047103Y0358016D01*
X0046998Y0357650D01*
X0046903Y0357282D01*
X0046816Y0356911D01*
X0046738Y0356539D01*
X0046670Y0356164D01*
X0046610Y0355788D01*
X0046560Y0355411D01*
X0046519Y0355033D01*
X0046486Y0354654D01*
X0046463Y0354274D01*
X0046450Y0353894D01*
X0046445Y0353513D01*
X0046445Y0070048D01*
X0046450Y0069667D01*
X0046463Y0069287D01*
X0046486Y0068907D01*
X0046519Y0068528D01*
X0046560Y0068150D01*
X0046610Y0067773D01*
X0046670Y0067397D01*
X0046738Y0067022D01*
X0046816Y0066650D01*
X0046903Y0066279D01*
X0046998Y0065911D01*
X0047103Y0065545D01*
X0047216Y0065182D01*
X0047338Y0064821D01*
X0047468Y0064464D01*
X0047608Y0064110D01*
X0047755Y0063759D01*
X0047912Y0063412D01*
X0048076Y0063069D01*
X0048249Y0062730D01*
X0048430Y0062395D01*
X0048619Y0062064D01*
X0048816Y0061739D01*
X0049020Y0061418D01*
X0049233Y0061102D01*
X0049453Y0060792D01*
X0049680Y0060486D01*
X0049915Y0060187D01*
X0050157Y0059893D01*
X0050405Y0059605D01*
X0050661Y0059323D01*
X0050924Y0059048D01*
X0051193Y0058779D01*
X0051468Y0058516D01*
X0051750Y0058260D01*
X0052038Y0058012D01*
X0052332Y0057770D01*
X0052631Y0057535D01*
X0052937Y0057308D01*
X0053247Y0057088D01*
X0053563Y0056875D01*
X0053884Y0056671D01*
X0054209Y0056474D01*
X0054540Y0056285D01*
X0054875Y0056104D01*
X0055214Y0055931D01*
X0055557Y0055767D01*
X0055904Y0055610D01*
X0056255Y0055463D01*
X0056609Y0055323D01*
X0056966Y0055193D01*
X0057327Y0055071D01*
X0057690Y0054958D01*
X0058056Y0054853D01*
X0058424Y0054758D01*
X0058795Y0054671D01*
X0059167Y0054593D01*
X0059542Y0054525D01*
X0059918Y0054465D01*
X0060295Y0054415D01*
X0060673Y0054374D01*
X0061052Y0054341D01*
X0061432Y0054318D01*
X0061812Y0054305D01*
X0062193Y0054300D01*
D11*
X0194299Y0089300D03*
X0200992Y0089300D03*
X0199799Y0201300D03*
X0206492Y0201300D03*
X0226299Y0202300D03*
X0232992Y0202300D03*
X0230146Y0328454D03*
X0230146Y0335146D03*
X0245146Y0335146D03*
X0245146Y0328454D03*
X0260146Y0328454D03*
X0260146Y0335146D03*
X0275146Y0335146D03*
X0275146Y0328454D03*
X0290146Y0328454D03*
X0290146Y0335146D03*
X0320146Y0335146D03*
X0320146Y0328454D03*
X0335146Y0328454D03*
X0335146Y0335146D03*
X0350146Y0335146D03*
X0350146Y0328454D03*
X0365146Y0328454D03*
X0365146Y0335146D03*
D12*
X0233646Y0195146D03*
X0233646Y0188454D03*
X0233146Y0179146D03*
X0233146Y0172454D03*
X0203396Y0173646D03*
X0203396Y0166954D03*
X0202896Y0185454D03*
X0202896Y0192146D03*
X0192744Y0250954D03*
X0192744Y0257646D03*
X0120244Y0257646D03*
X0120244Y0250954D03*
D13*
X0212134Y0183800D03*
X0223157Y0183800D03*
D14*
X0179146Y0079300D03*
X0116646Y0079300D03*
D15*
X0147646Y0079300D03*
D16*
X0112646Y0123800D02*
X0112646Y0129800D01*
X0102646Y0129800D02*
X0102646Y0123800D01*
X0092646Y0123800D02*
X0092646Y0129800D01*
X0082646Y0129800D02*
X0082646Y0123800D01*
X0072646Y0123800D02*
X0072646Y0129800D01*
X0062646Y0129800D02*
X0062646Y0123800D01*
X0086445Y0346300D02*
X0086445Y0352300D01*
X0096445Y0352300D02*
X0096445Y0346300D01*
X0106445Y0346300D02*
X0106445Y0352300D01*
X0116445Y0352300D02*
X0116445Y0346300D01*
X0126445Y0346300D02*
X0126445Y0352300D01*
X0136445Y0352300D02*
X0136445Y0346300D01*
X0151445Y0346300D02*
X0151445Y0352300D01*
X0161445Y0352300D02*
X0161445Y0346300D01*
X0171445Y0346300D02*
X0171445Y0352300D01*
X0181445Y0352300D02*
X0181445Y0346300D01*
X0191445Y0346300D02*
X0191445Y0352300D01*
X0201445Y0352300D02*
X0201445Y0346300D01*
X0221445Y0346300D02*
X0221445Y0352300D01*
X0231445Y0352300D02*
X0231445Y0346300D01*
X0251445Y0346300D02*
X0251445Y0352300D01*
X0261445Y0352300D02*
X0261445Y0346300D01*
X0271445Y0346300D02*
X0271445Y0352300D01*
X0281445Y0352300D02*
X0281445Y0346300D01*
X0291445Y0346300D02*
X0291445Y0352300D01*
X0301445Y0352300D02*
X0301445Y0346300D01*
X0321445Y0346300D02*
X0321445Y0352300D01*
X0331445Y0352300D02*
X0331445Y0346300D01*
X0341445Y0346300D02*
X0341445Y0352300D01*
X0351445Y0352300D02*
X0351445Y0346300D01*
X0361445Y0346300D02*
X0361445Y0352300D01*
X0371445Y0352300D02*
X0371445Y0346300D01*
X0391445Y0346300D02*
X0391445Y0352300D01*
X0401445Y0352300D02*
X0401445Y0346300D01*
D17*
X0408521Y0221780D02*
X0416771Y0221780D01*
X0416771Y0201780D02*
X0408521Y0201780D01*
D18*
X0396445Y0315688D03*
X0396445Y0333011D03*
X0092606Y0146800D03*
X0075283Y0146800D03*
D19*
X0062193Y0070048D03*
X0062193Y0353513D03*
X0424398Y0353513D03*
X0424398Y0070048D03*
D20*
X0290046Y0082500D03*
X0290046Y0090400D03*
X0280246Y0090400D03*
X0280246Y0082500D03*
D21*
X0261446Y0071800D03*
X0308846Y0071800D03*
D22*
X0285146Y0073422D03*
X0285146Y0070178D03*
D23*
X0282646Y0323591D03*
X0282646Y0335009D03*
X0267646Y0335009D03*
X0267646Y0323591D03*
X0252646Y0323591D03*
X0252646Y0335009D03*
X0237646Y0335009D03*
X0237646Y0323591D03*
X0222646Y0323591D03*
X0222646Y0335009D03*
X0312646Y0335009D03*
X0312646Y0323591D03*
X0327646Y0323591D03*
X0327646Y0335009D03*
X0342646Y0335009D03*
X0342646Y0323591D03*
X0357646Y0323591D03*
X0357646Y0335009D03*
D24*
X0361406Y0361387D03*
X0322035Y0361387D03*
X0270165Y0361387D03*
X0225165Y0361387D03*
X0173295Y0361387D03*
X0133925Y0361387D03*
X0087055Y0361387D03*
X0055559Y0314143D03*
X0055559Y0290520D03*
X0055559Y0251150D03*
X0055559Y0211780D03*
X0055559Y0172410D03*
X0055559Y0133040D03*
X0055559Y0105481D03*
X0079555Y0078670D03*
X0087055Y0062174D03*
X0123305Y0062174D03*
X0163305Y0062174D03*
X0203925Y0062174D03*
X0243295Y0062174D03*
X0282665Y0062174D03*
X0322035Y0062174D03*
X0361406Y0062174D03*
X0400776Y0062174D03*
X0400776Y0093670D03*
X0432272Y0109418D03*
X0432272Y0133040D03*
X0432272Y0172410D03*
X0432272Y0211780D03*
X0432272Y0251150D03*
X0432272Y0290520D03*
X0430274Y0318956D03*
X0410776Y0332391D03*
X0400776Y0361013D03*
D25*
X0375396Y0314300D03*
X0357896Y0314300D03*
X0340396Y0314300D03*
X0322896Y0314300D03*
X0296646Y0314300D03*
X0279146Y0314300D03*
X0261646Y0314300D03*
X0244146Y0314300D03*
X0226445Y0314300D03*
X0185146Y0303050D03*
X0175146Y0303050D03*
X0165146Y0303050D03*
X0155146Y0303050D03*
X0120146Y0303050D03*
X0110146Y0303050D03*
X0100146Y0303050D03*
X0090146Y0303050D03*
X0113646Y0254800D03*
X0120646Y0219300D03*
X0112646Y0172300D03*
X0120146Y0149300D03*
X0106396Y0111800D03*
X0100195Y0103050D03*
X0087695Y0098050D03*
X0118896Y0101800D03*
X0115646Y0066800D03*
X0180646Y0066800D03*
X0207646Y0094800D03*
X0209146Y0108300D03*
X0201646Y0119550D03*
X0195146Y0129300D03*
X0170146Y0129300D03*
X0212396Y0166300D03*
X0218646Y0166300D03*
X0226646Y0165300D03*
X0234146Y0165300D03*
X0240646Y0167800D03*
X0226646Y0173800D03*
X0220896Y0176050D03*
X0210896Y0174550D03*
X0196146Y0170800D03*
X0196146Y0194800D03*
X0210146Y0194800D03*
X0212396Y0201300D03*
X0203146Y0208550D03*
X0226896Y0194800D03*
X0239646Y0194800D03*
X0239646Y0202300D03*
X0236646Y0208800D03*
X0250146Y0253050D03*
X0260146Y0253050D03*
X0270146Y0253050D03*
X0280146Y0253050D03*
X0320146Y0253050D03*
X0330146Y0253050D03*
X0340146Y0253050D03*
X0350146Y0253050D03*
X0392646Y0271800D03*
X0413896Y0246550D03*
X0379146Y0204550D03*
X0379146Y0192800D03*
X0385646Y0186800D03*
X0365146Y0166800D03*
X0335146Y0154300D03*
X0329146Y0154300D03*
X0323146Y0154300D03*
X0323146Y0146800D03*
X0329146Y0146800D03*
X0335146Y0146800D03*
X0309146Y0107800D03*
X0322646Y0080800D03*
X0322646Y0074300D03*
X0328646Y0074300D03*
X0334646Y0074300D03*
X0334646Y0080800D03*
X0328646Y0080800D03*
X0365146Y0095800D03*
X0386646Y0114300D03*
X0380646Y0125300D03*
X0261646Y0100300D03*
X0236646Y0101800D03*
X0233646Y0117050D03*
X0226146Y0135550D03*
X0186146Y0254800D03*
D26*
X0403146Y0135300D03*
X0414396Y0135300D03*
M02*
