G75*
%MOIN*%
%OFA0B0*%
%FSLAX25Y25*%
%IPPOS*%
%LPD*%
%AMOC8*
5,1,8,0,0,1.08239X$1,22.5*
%
%ADD10C,0.00000*%
%ADD11C,0.00300*%
%ADD12C,0.00500*%
%ADD13C,0.00400*%
%ADD14C,0.00800*%
%ADD15C,0.00600*%
D10*
X0062193Y0054300D02*
X0424398Y0054300D01*
X0424779Y0054305D01*
X0425159Y0054318D01*
X0425539Y0054341D01*
X0425918Y0054374D01*
X0426296Y0054415D01*
X0426673Y0054465D01*
X0427049Y0054525D01*
X0427424Y0054593D01*
X0427796Y0054671D01*
X0428167Y0054758D01*
X0428535Y0054853D01*
X0428901Y0054958D01*
X0429264Y0055071D01*
X0429625Y0055193D01*
X0429982Y0055323D01*
X0430336Y0055463D01*
X0430687Y0055610D01*
X0431034Y0055767D01*
X0431377Y0055931D01*
X0431716Y0056104D01*
X0432051Y0056285D01*
X0432382Y0056474D01*
X0432707Y0056671D01*
X0433028Y0056875D01*
X0433344Y0057088D01*
X0433654Y0057308D01*
X0433960Y0057535D01*
X0434259Y0057770D01*
X0434553Y0058012D01*
X0434841Y0058260D01*
X0435123Y0058516D01*
X0435398Y0058779D01*
X0435667Y0059048D01*
X0435930Y0059323D01*
X0436186Y0059605D01*
X0436434Y0059893D01*
X0436676Y0060187D01*
X0436911Y0060486D01*
X0437138Y0060792D01*
X0437358Y0061102D01*
X0437571Y0061418D01*
X0437775Y0061739D01*
X0437972Y0062064D01*
X0438161Y0062395D01*
X0438342Y0062730D01*
X0438515Y0063069D01*
X0438679Y0063412D01*
X0438836Y0063759D01*
X0438983Y0064110D01*
X0439123Y0064464D01*
X0439253Y0064821D01*
X0439375Y0065182D01*
X0439488Y0065545D01*
X0439593Y0065911D01*
X0439688Y0066279D01*
X0439775Y0066650D01*
X0439853Y0067022D01*
X0439921Y0067397D01*
X0439981Y0067773D01*
X0440031Y0068150D01*
X0440072Y0068528D01*
X0440105Y0068907D01*
X0440128Y0069287D01*
X0440141Y0069667D01*
X0440146Y0070048D01*
X0440146Y0353513D01*
X0440141Y0353894D01*
X0440128Y0354274D01*
X0440105Y0354654D01*
X0440072Y0355033D01*
X0440031Y0355411D01*
X0439981Y0355788D01*
X0439921Y0356164D01*
X0439853Y0356539D01*
X0439775Y0356911D01*
X0439688Y0357282D01*
X0439593Y0357650D01*
X0439488Y0358016D01*
X0439375Y0358379D01*
X0439253Y0358740D01*
X0439123Y0359097D01*
X0438983Y0359451D01*
X0438836Y0359802D01*
X0438679Y0360149D01*
X0438515Y0360492D01*
X0438342Y0360831D01*
X0438161Y0361166D01*
X0437972Y0361497D01*
X0437775Y0361822D01*
X0437571Y0362143D01*
X0437358Y0362459D01*
X0437138Y0362769D01*
X0436911Y0363075D01*
X0436676Y0363374D01*
X0436434Y0363668D01*
X0436186Y0363956D01*
X0435930Y0364238D01*
X0435667Y0364513D01*
X0435398Y0364782D01*
X0435123Y0365045D01*
X0434841Y0365301D01*
X0434553Y0365549D01*
X0434259Y0365791D01*
X0433960Y0366026D01*
X0433654Y0366253D01*
X0433344Y0366473D01*
X0433028Y0366686D01*
X0432707Y0366890D01*
X0432382Y0367087D01*
X0432051Y0367276D01*
X0431716Y0367457D01*
X0431377Y0367630D01*
X0431034Y0367794D01*
X0430687Y0367951D01*
X0430336Y0368098D01*
X0429982Y0368238D01*
X0429625Y0368368D01*
X0429264Y0368490D01*
X0428901Y0368603D01*
X0428535Y0368708D01*
X0428167Y0368803D01*
X0427796Y0368890D01*
X0427424Y0368968D01*
X0427049Y0369036D01*
X0426673Y0369096D01*
X0426296Y0369146D01*
X0425918Y0369187D01*
X0425539Y0369220D01*
X0425159Y0369243D01*
X0424779Y0369256D01*
X0424398Y0369261D01*
X0062193Y0369261D01*
X0061812Y0369256D01*
X0061432Y0369243D01*
X0061052Y0369220D01*
X0060673Y0369187D01*
X0060295Y0369146D01*
X0059918Y0369096D01*
X0059542Y0369036D01*
X0059167Y0368968D01*
X0058795Y0368890D01*
X0058424Y0368803D01*
X0058056Y0368708D01*
X0057690Y0368603D01*
X0057327Y0368490D01*
X0056966Y0368368D01*
X0056609Y0368238D01*
X0056255Y0368098D01*
X0055904Y0367951D01*
X0055557Y0367794D01*
X0055214Y0367630D01*
X0054875Y0367457D01*
X0054540Y0367276D01*
X0054209Y0367087D01*
X0053884Y0366890D01*
X0053563Y0366686D01*
X0053247Y0366473D01*
X0052937Y0366253D01*
X0052631Y0366026D01*
X0052332Y0365791D01*
X0052038Y0365549D01*
X0051750Y0365301D01*
X0051468Y0365045D01*
X0051193Y0364782D01*
X0050924Y0364513D01*
X0050661Y0364238D01*
X0050405Y0363956D01*
X0050157Y0363668D01*
X0049915Y0363374D01*
X0049680Y0363075D01*
X0049453Y0362769D01*
X0049233Y0362459D01*
X0049020Y0362143D01*
X0048816Y0361822D01*
X0048619Y0361497D01*
X0048430Y0361166D01*
X0048249Y0360831D01*
X0048076Y0360492D01*
X0047912Y0360149D01*
X0047755Y0359802D01*
X0047608Y0359451D01*
X0047468Y0359097D01*
X0047338Y0358740D01*
X0047216Y0358379D01*
X0047103Y0358016D01*
X0046998Y0357650D01*
X0046903Y0357282D01*
X0046816Y0356911D01*
X0046738Y0356539D01*
X0046670Y0356164D01*
X0046610Y0355788D01*
X0046560Y0355411D01*
X0046519Y0355033D01*
X0046486Y0354654D01*
X0046463Y0354274D01*
X0046450Y0353894D01*
X0046445Y0353513D01*
X0046445Y0070048D01*
X0046450Y0069667D01*
X0046463Y0069287D01*
X0046486Y0068907D01*
X0046519Y0068528D01*
X0046560Y0068150D01*
X0046610Y0067773D01*
X0046670Y0067397D01*
X0046738Y0067022D01*
X0046816Y0066650D01*
X0046903Y0066279D01*
X0046998Y0065911D01*
X0047103Y0065545D01*
X0047216Y0065182D01*
X0047338Y0064821D01*
X0047468Y0064464D01*
X0047608Y0064110D01*
X0047755Y0063759D01*
X0047912Y0063412D01*
X0048076Y0063069D01*
X0048249Y0062730D01*
X0048430Y0062395D01*
X0048619Y0062064D01*
X0048816Y0061739D01*
X0049020Y0061418D01*
X0049233Y0061102D01*
X0049453Y0060792D01*
X0049680Y0060486D01*
X0049915Y0060187D01*
X0050157Y0059893D01*
X0050405Y0059605D01*
X0050661Y0059323D01*
X0050924Y0059048D01*
X0051193Y0058779D01*
X0051468Y0058516D01*
X0051750Y0058260D01*
X0052038Y0058012D01*
X0052332Y0057770D01*
X0052631Y0057535D01*
X0052937Y0057308D01*
X0053247Y0057088D01*
X0053563Y0056875D01*
X0053884Y0056671D01*
X0054209Y0056474D01*
X0054540Y0056285D01*
X0054875Y0056104D01*
X0055214Y0055931D01*
X0055557Y0055767D01*
X0055904Y0055610D01*
X0056255Y0055463D01*
X0056609Y0055323D01*
X0056966Y0055193D01*
X0057327Y0055071D01*
X0057690Y0054958D01*
X0058056Y0054853D01*
X0058424Y0054758D01*
X0058795Y0054671D01*
X0059167Y0054593D01*
X0059542Y0054525D01*
X0059918Y0054465D01*
X0060295Y0054415D01*
X0060673Y0054374D01*
X0061052Y0054341D01*
X0061432Y0054318D01*
X0061812Y0054305D01*
X0062193Y0054300D01*
D11*
X0130935Y0105684D02*
X0130935Y0108153D01*
X0130935Y0105684D02*
X0132170Y0104450D01*
X0133404Y0105684D01*
X0133404Y0108153D01*
X0134618Y0107536D02*
X0134618Y0106919D01*
X0135235Y0106302D01*
X0134618Y0105684D01*
X0134618Y0105067D01*
X0135235Y0104450D01*
X0136470Y0104450D01*
X0137087Y0105067D01*
X0135853Y0106302D02*
X0135235Y0106302D01*
X0134618Y0107536D02*
X0135235Y0108153D01*
X0136470Y0108153D01*
X0137087Y0107536D01*
X0141985Y0107536D02*
X0144453Y0105067D01*
X0143836Y0104450D01*
X0142602Y0104450D01*
X0141985Y0105067D01*
X0141985Y0107536D01*
X0142602Y0108153D01*
X0143836Y0108153D01*
X0144453Y0107536D01*
X0144453Y0105067D01*
X0145668Y0104450D02*
X0148136Y0104450D01*
X0145668Y0106919D01*
X0145668Y0107536D01*
X0146285Y0108153D01*
X0147519Y0108153D01*
X0148136Y0107536D01*
X0149351Y0107536D02*
X0149968Y0108153D01*
X0151202Y0108153D01*
X0151820Y0107536D01*
X0149351Y0107536D02*
X0149351Y0106919D01*
X0151820Y0104450D01*
X0149351Y0104450D01*
X0153034Y0104450D02*
X0155503Y0104450D01*
X0156717Y0104450D02*
X0157952Y0105684D01*
X0157334Y0105684D02*
X0159186Y0105684D01*
X0159186Y0104450D02*
X0159186Y0108153D01*
X0157334Y0108153D01*
X0156717Y0107536D01*
X0156717Y0106302D01*
X0157334Y0105684D01*
X0155503Y0106919D02*
X0154268Y0108153D01*
X0154268Y0104450D01*
X0160400Y0105067D02*
X0161017Y0104450D01*
X0162252Y0104450D01*
X0162869Y0105067D01*
X0162869Y0107536D01*
X0162252Y0108153D01*
X0161017Y0108153D01*
X0160400Y0107536D01*
D12*
X0161696Y0103050D02*
X0173646Y0091100D01*
X0173646Y0067500D01*
X0173645Y0067500D02*
X0173643Y0067346D01*
X0173637Y0067193D01*
X0173627Y0067040D01*
X0173613Y0066887D01*
X0173596Y0066734D01*
X0173574Y0066582D01*
X0173548Y0066430D01*
X0173519Y0066280D01*
X0173485Y0066130D01*
X0173448Y0065981D01*
X0173407Y0065833D01*
X0173362Y0065686D01*
X0173314Y0065540D01*
X0173261Y0065396D01*
X0173205Y0065253D01*
X0173146Y0065111D01*
X0173082Y0064971D01*
X0173015Y0064833D01*
X0172945Y0064696D01*
X0172871Y0064562D01*
X0172794Y0064429D01*
X0172713Y0064298D01*
X0172629Y0064170D01*
X0172541Y0064043D01*
X0172451Y0063919D01*
X0172357Y0063798D01*
X0172260Y0063678D01*
X0172160Y0063562D01*
X0172057Y0063448D01*
X0171951Y0063336D01*
X0171843Y0063228D01*
X0171731Y0063122D01*
X0171617Y0063019D01*
X0171501Y0062919D01*
X0171381Y0062822D01*
X0171260Y0062729D01*
X0171136Y0062638D01*
X0171009Y0062551D01*
X0170881Y0062466D01*
X0170750Y0062386D01*
X0170617Y0062308D01*
X0170483Y0062234D01*
X0170346Y0062164D01*
X0170208Y0062097D01*
X0170068Y0062034D01*
X0169926Y0061974D01*
X0169783Y0061918D01*
X0169639Y0061866D01*
X0169493Y0061817D01*
X0169346Y0061772D01*
X0169198Y0061731D01*
X0169049Y0061694D01*
X0168899Y0061661D01*
X0168748Y0061631D01*
X0168597Y0061606D01*
X0168445Y0061584D01*
X0168292Y0061567D01*
X0168139Y0061553D01*
X0167986Y0061543D01*
X0167832Y0061537D01*
X0167679Y0061535D01*
X0167525Y0061537D01*
X0167372Y0061543D01*
X0167218Y0061553D01*
X0167065Y0061567D01*
X0166913Y0061585D01*
X0166761Y0061606D01*
X0166609Y0061632D01*
X0166459Y0061661D01*
X0166309Y0061695D01*
X0166160Y0061732D01*
X0166012Y0061773D01*
X0165865Y0061818D01*
X0165719Y0061867D01*
X0165574Y0061919D01*
X0165431Y0061975D01*
X0165290Y0062035D01*
X0165150Y0062098D01*
X0165012Y0062165D01*
X0164875Y0062236D01*
X0164741Y0062310D01*
X0164608Y0062387D01*
X0164477Y0062468D01*
X0164349Y0062552D01*
X0164222Y0062639D01*
X0164098Y0062730D01*
X0163977Y0062824D01*
X0163858Y0062921D01*
X0163741Y0063021D01*
X0163627Y0063124D01*
X0163515Y0063229D01*
X0163407Y0063338D01*
X0163301Y0063449D01*
X0163198Y0063564D01*
X0163098Y0063680D01*
X0163002Y0063800D01*
X0162908Y0063921D01*
X0162817Y0064045D01*
X0162730Y0064172D01*
X0162646Y0064300D01*
X0162187Y0064647D01*
X0161719Y0064983D01*
X0161244Y0065307D01*
X0160761Y0065620D01*
X0160271Y0065921D01*
X0159773Y0066211D01*
X0159269Y0066488D01*
X0158758Y0066753D01*
X0158241Y0067005D01*
X0157717Y0067245D01*
X0157189Y0067473D01*
X0156655Y0067687D01*
X0156116Y0067889D01*
X0155572Y0068077D01*
X0155024Y0068253D01*
X0154471Y0068415D01*
X0153915Y0068564D01*
X0153356Y0068699D01*
X0152794Y0068821D01*
X0152228Y0068929D01*
X0151661Y0069024D01*
X0151091Y0069105D01*
X0150519Y0069172D01*
X0149946Y0069225D01*
X0149372Y0069265D01*
X0148797Y0069290D01*
X0148221Y0069302D01*
X0147646Y0069300D01*
X0132645Y0064300D02*
X0132561Y0064172D01*
X0132474Y0064045D01*
X0132383Y0063921D01*
X0132289Y0063800D01*
X0132193Y0063680D01*
X0132093Y0063564D01*
X0131990Y0063449D01*
X0131884Y0063338D01*
X0131776Y0063229D01*
X0131664Y0063124D01*
X0131550Y0063021D01*
X0131433Y0062921D01*
X0131314Y0062824D01*
X0131193Y0062730D01*
X0131069Y0062639D01*
X0130942Y0062552D01*
X0130814Y0062468D01*
X0130683Y0062387D01*
X0130550Y0062310D01*
X0130416Y0062236D01*
X0130279Y0062165D01*
X0130141Y0062098D01*
X0130001Y0062035D01*
X0129860Y0061975D01*
X0129717Y0061919D01*
X0129572Y0061867D01*
X0129426Y0061818D01*
X0129279Y0061773D01*
X0129131Y0061732D01*
X0128982Y0061695D01*
X0128832Y0061661D01*
X0128682Y0061632D01*
X0128530Y0061606D01*
X0128378Y0061585D01*
X0128226Y0061567D01*
X0128073Y0061553D01*
X0127919Y0061543D01*
X0127766Y0061537D01*
X0127612Y0061535D01*
X0127459Y0061537D01*
X0127305Y0061543D01*
X0127152Y0061553D01*
X0126999Y0061567D01*
X0126846Y0061584D01*
X0126694Y0061606D01*
X0126543Y0061631D01*
X0126392Y0061661D01*
X0126242Y0061694D01*
X0126093Y0061731D01*
X0125945Y0061772D01*
X0125798Y0061817D01*
X0125652Y0061866D01*
X0125508Y0061918D01*
X0125365Y0061974D01*
X0125223Y0062034D01*
X0125083Y0062097D01*
X0124945Y0062164D01*
X0124808Y0062234D01*
X0124674Y0062308D01*
X0124541Y0062386D01*
X0124410Y0062466D01*
X0124282Y0062551D01*
X0124155Y0062638D01*
X0124031Y0062729D01*
X0123910Y0062822D01*
X0123790Y0062919D01*
X0123674Y0063019D01*
X0123560Y0063122D01*
X0123448Y0063228D01*
X0123340Y0063336D01*
X0123234Y0063448D01*
X0123131Y0063562D01*
X0123031Y0063678D01*
X0122934Y0063798D01*
X0122840Y0063919D01*
X0122750Y0064043D01*
X0122662Y0064170D01*
X0122578Y0064298D01*
X0122497Y0064429D01*
X0122420Y0064562D01*
X0122346Y0064696D01*
X0122276Y0064833D01*
X0122209Y0064971D01*
X0122145Y0065111D01*
X0122086Y0065253D01*
X0122030Y0065396D01*
X0121977Y0065540D01*
X0121929Y0065686D01*
X0121884Y0065833D01*
X0121843Y0065981D01*
X0121806Y0066130D01*
X0121772Y0066280D01*
X0121743Y0066430D01*
X0121717Y0066582D01*
X0121695Y0066734D01*
X0121678Y0066887D01*
X0121664Y0067040D01*
X0121654Y0067193D01*
X0121648Y0067346D01*
X0121646Y0067500D01*
X0121646Y0091100D01*
X0133596Y0103050D01*
X0161696Y0103050D01*
X0147646Y0069300D02*
X0147071Y0069302D01*
X0146495Y0069290D01*
X0145920Y0069265D01*
X0145346Y0069225D01*
X0144773Y0069172D01*
X0144201Y0069105D01*
X0143631Y0069024D01*
X0143064Y0068929D01*
X0142498Y0068821D01*
X0141936Y0068699D01*
X0141377Y0068564D01*
X0140821Y0068415D01*
X0140268Y0068253D01*
X0139720Y0068077D01*
X0139176Y0067889D01*
X0138637Y0067687D01*
X0138103Y0067473D01*
X0137575Y0067245D01*
X0137051Y0067005D01*
X0136534Y0066753D01*
X0136023Y0066488D01*
X0135519Y0066211D01*
X0135021Y0065921D01*
X0134531Y0065620D01*
X0134048Y0065307D01*
X0133573Y0064983D01*
X0133105Y0064647D01*
X0132646Y0064300D01*
D13*
X0092845Y0139300D02*
X0075045Y0139300D01*
X0075045Y0154300D02*
X0092845Y0154300D01*
X0388945Y0315449D02*
X0388945Y0333249D01*
X0403945Y0333249D02*
X0403945Y0315449D01*
D14*
X0400382Y0323589D02*
X0392508Y0323589D01*
X0396445Y0327617D01*
X0400382Y0323589D01*
X0087213Y0146800D02*
X0083185Y0142863D01*
X0083185Y0150737D01*
X0087213Y0146800D01*
D15*
X0281209Y0074950D02*
X0281209Y0068650D01*
X0281205Y0068587D01*
X0281204Y0068524D01*
X0281208Y0068461D01*
X0281215Y0068398D01*
X0281226Y0068336D01*
X0281240Y0068274D01*
X0281258Y0068213D01*
X0281279Y0068154D01*
X0281304Y0068096D01*
X0281332Y0068039D01*
X0281364Y0067984D01*
X0281398Y0067931D01*
X0281436Y0067880D01*
X0281476Y0067832D01*
X0281520Y0067786D01*
X0281565Y0067742D01*
X0281614Y0067701D01*
X0281664Y0067663D01*
X0281717Y0067628D01*
X0281772Y0067597D01*
X0281828Y0067568D01*
X0281886Y0067543D01*
X0281946Y0067521D01*
X0282006Y0067503D01*
X0282068Y0067488D01*
X0282130Y0067477D01*
X0282193Y0067469D01*
X0288098Y0067469D01*
X0288161Y0067477D01*
X0288223Y0067488D01*
X0288285Y0067503D01*
X0288345Y0067521D01*
X0288405Y0067543D01*
X0288463Y0067568D01*
X0288519Y0067597D01*
X0288574Y0067629D01*
X0288626Y0067664D01*
X0288677Y0067702D01*
X0288725Y0067742D01*
X0288771Y0067786D01*
X0288814Y0067832D01*
X0288855Y0067881D01*
X0288893Y0067932D01*
X0288927Y0067984D01*
X0288959Y0068039D01*
X0288987Y0068096D01*
X0289012Y0068154D01*
X0289033Y0068214D01*
X0289051Y0068274D01*
X0289065Y0068336D01*
X0289076Y0068398D01*
X0289083Y0068461D01*
X0289087Y0068524D01*
X0289086Y0068587D01*
X0289083Y0068650D01*
X0289083Y0074950D01*
X0289086Y0075013D01*
X0289087Y0075076D01*
X0289083Y0075139D01*
X0289076Y0075202D01*
X0289065Y0075264D01*
X0289051Y0075326D01*
X0289033Y0075386D01*
X0289012Y0075446D01*
X0288987Y0075504D01*
X0288959Y0075561D01*
X0288927Y0075616D01*
X0288893Y0075668D01*
X0288855Y0075719D01*
X0288814Y0075768D01*
X0288771Y0075814D01*
X0288725Y0075858D01*
X0288677Y0075898D01*
X0288626Y0075936D01*
X0288574Y0075971D01*
X0288519Y0076003D01*
X0288463Y0076032D01*
X0288405Y0076057D01*
X0288345Y0076079D01*
X0288285Y0076097D01*
X0288223Y0076112D01*
X0288161Y0076123D01*
X0288098Y0076131D01*
X0282193Y0076131D01*
X0282127Y0076123D01*
X0282063Y0076111D01*
X0281999Y0076095D01*
X0281936Y0076076D01*
X0281875Y0076052D01*
X0281815Y0076025D01*
X0281757Y0075995D01*
X0281701Y0075961D01*
X0281647Y0075924D01*
X0281595Y0075883D01*
X0281546Y0075839D01*
X0281499Y0075793D01*
X0281456Y0075744D01*
X0281415Y0075692D01*
X0281378Y0075638D01*
X0281344Y0075582D01*
X0281314Y0075524D01*
X0281287Y0075464D01*
X0281263Y0075403D01*
X0281244Y0075340D01*
X0281228Y0075276D01*
X0281216Y0075212D01*
X0281208Y0075146D01*
X0281204Y0075081D01*
X0281204Y0075015D01*
X0281208Y0074950D01*
X0281071Y0328906D02*
X0284220Y0328906D01*
X0282646Y0331269D01*
X0281071Y0328906D01*
X0269220Y0328906D02*
X0267646Y0331269D01*
X0266071Y0328906D01*
X0269220Y0328906D01*
X0254220Y0328906D02*
X0252646Y0331269D01*
X0251071Y0328906D01*
X0254220Y0328906D01*
X0239220Y0328906D02*
X0237646Y0331269D01*
X0236071Y0328906D01*
X0239220Y0328906D01*
X0224220Y0328906D02*
X0222646Y0331269D01*
X0221071Y0328906D01*
X0224220Y0328906D01*
X0311071Y0328906D02*
X0314220Y0328906D01*
X0312646Y0331269D01*
X0311071Y0328906D01*
X0326071Y0328906D02*
X0329220Y0328906D01*
X0327646Y0331269D01*
X0326071Y0328906D01*
X0341071Y0328906D02*
X0344220Y0328906D01*
X0342646Y0331269D01*
X0341071Y0328906D01*
X0356071Y0328906D02*
X0359220Y0328906D01*
X0357646Y0331269D01*
X0356071Y0328906D01*
M02*
